<?xml version="1.0" encoding="UTF-8" standalone="no"?>
<!DOCTYPE svg PUBLIC "-//W3C//DTD SVG 1.1//EN" "http://www.w3.org/Graphics/SVG/1.1/DTD/svg11.dtd">
<svg width="100%" height="100%" viewBox="0 0 1080 1080" version="1.1" xmlns="http://www.w3.org/2000/svg" xmlns:xlink="http://www.w3.org/1999/xlink" xml:space="preserve" xmlns:serif="http://www.serif.com/" style="fill-rule:evenodd;clip-rule:evenodd;stroke-linejoin:round;stroke-miterlimit:2;">
    <g transform="matrix(1,0,0,1,-3622,-1465.72)">
        <g id="Artboard1" transform="matrix(1,0,0,1,3622,1465.72)">
            <rect x="0" y="0" width="1080" height="1080" style="fill:none;"/>
            <g transform="matrix(1,0,0,1,-21.7307,2.27374e-13)">
                <g transform="matrix(1,0,0,1,400.5,31)">
                    <path d="M170.039,938L13,938L390,509L13,80L170.039,80L547.039,509L170.039,938Z"/>
                </g>
                <g transform="matrix(1,0,0,1,527,31)">
                    <path d="M13,80L110.961,80L487.961,509L110.961,938L13,938L390,509L13,80Z" style="fill:rgb(241,0,122);"/>
                </g>
                <path d="M431,969L879,969" style="fill:none;"/>
                <g transform="matrix(2.46293,0,0,1,-2003.37,1.13687e-13)">
                    <rect x="857.465" y="111" width="103.535" height="858" style="fill:rgb(241,0,122);"/>
                </g>
            </g>
        </g>
    </g>
</svg>
